<?xml version="1.0" encoding="UTF-8" standalone="no"?>
<!DOCTYPE svg PUBLIC "-//W3C//DTD SVG 1.0//EN" "http://www.w3.org/TR/2001/PR-SVG-20010719/DTD/svg10.dtd">
<svg width="24cm" height="10cm" viewBox="5 19 466 198" xmlns="http://www.w3.org/2000/svg" xmlns:xlink="http://www.w3.org/1999/xlink">
  <g>
    <rect style="fill: #ffffff" x="262.727" y="20" width="100.225" height="195.981"/>
    <rect style="fill: none; fill-opacity:0; stroke-width: 2; stroke: #000000" x="262.727" y="20" width="100.225" height="195.981"/>
    <text font-size="12.7998" style="fill: #000000;text-anchor:middle;font-family:sans-serif;font-style:normal;font-weight:normal" x="312.84" y="121.89">
      <tspan x="312.84" y="121.89"></tspan>
    </text>
  </g>
  <g>
    <polygon style="fill: #ffffff" points="276.484,149.664 311.474,149.664 328.97,169.664 311.474,189.664 276.484,189.664 "/>
    <polygon style="fill: none; fill-opacity:0; stroke-width: 2; stroke: #000000" points="276.484,149.664 311.474,149.664 328.97,169.664 311.474,189.664 276.484,189.664 "/>
    <polygon style="fill: none; fill-opacity:0; stroke-width: 2; stroke: #000000" points="276.484,149.664 311.474,149.664 328.97,169.664 311.474,189.664 276.484,189.664 "/>
  </g>
  <g>
    <rect style="fill: #ffffff" x="368.407" y="20" width="102.347" height="195.274"/>
    <rect style="fill: none; fill-opacity:0; stroke-width: 2; stroke: #000000" x="368.407" y="20" width="102.347" height="195.274"/>
    <text font-size="12.7998" style="fill: #000000;text-anchor:middle;font-family:sans-serif;font-style:normal;font-weight:normal" x="419.581" y="121.537">
      <tspan x="419.581" y="121.537"></tspan>
    </text>
  </g>
  <g>
    <rect style="fill: #ffffff" x="111.223" y="20" width="145.519" height="195.981"/>
    <rect style="fill: none; fill-opacity:0; stroke-width: 2; stroke: #000000" x="111.223" y="20" width="145.519" height="195.981"/>
    <text font-size="12.7998" style="fill: #000000;text-anchor:middle;font-family:sans-serif;font-style:normal;font-weight:normal" x="183.982" y="121.89">
      <tspan x="183.982" y="121.89"></tspan>
    </text>
  </g>
  <g>
    <g>
      <polygon style="fill: #ffffff" points="116.662,63.396 143.329,63.396 156.662,83.396 143.329,103.396 116.662,103.396 "/>
      <polygon style="fill: none; fill-opacity:0; stroke-width: 2; stroke: #000000" points="116.662,63.396 143.329,63.396 156.662,83.396 143.329,103.396 116.662,103.396 "/>
      <polygon style="fill: none; fill-opacity:0; stroke-width: 2; stroke: #000000" points="116.662,63.396 143.329,63.396 156.662,83.396 143.329,103.396 116.662,103.396 "/>
    </g>
    <text font-size="5.64444" style="fill: #000000;text-anchor:start;font-family:sans-serif;font-style:normal;font-weight:700" x="120.174" y="85.4784">
      <tspan x="120.174" y="85.4784">Layout</tspan>
    </text>
  </g>
  <g>
    <g>
      <polygon style="fill: #ffffff" points="164.063,63.396 190.729,63.396 204.063,83.396 190.729,103.396 164.063,103.396 "/>
      <polygon style="fill: none; fill-opacity:0; stroke-width: 2; stroke: #000000" points="164.063,63.396 190.729,63.396 204.063,83.396 190.729,103.396 164.063,103.396 "/>
      <polygon style="fill: none; fill-opacity:0; stroke-width: 2; stroke: #000000" points="164.063,63.396 190.729,63.396 204.063,83.396 190.729,103.396 164.063,103.396 "/>
    </g>
    <text font-size="5.64444" style="fill: #000000;text-anchor:start;font-family:sans-serif;font-style:normal;font-weight:700" x="168.704" y="80.5347">
      <tspan x="168.704" y="80.5347">User-</tspan>
      <tspan x="168.704" y="87.5902">interface</tspan>
    </text>
  </g>
  <g>
    <g>
      <polygon style="fill: #ffffff" points="210.87,63.396 237.537,63.396 250.87,83.396 237.537,103.396 210.87,103.396 "/>
      <polygon style="fill: none; fill-opacity:0; stroke-width: 2; stroke: #000000" points="210.87,63.396 237.537,63.396 250.87,83.396 237.537,103.396 210.87,103.396 "/>
      <polygon style="fill: none; fill-opacity:0; stroke-width: 2; stroke: #000000" points="210.87,63.396 237.537,63.396 250.87,83.396 237.537,103.396 210.87,103.396 "/>
    </g>
    <text font-size="5.64444" style="fill: #000000;text-anchor:start;font-family:sans-serif;font-style:normal;font-weight:700" x="217.221" y="81.6768">
      <tspan x="217.221" y="81.6768">Backend</tspan>
    </text>
  </g>
  <g>
    <g>
      <polygon style="fill: #ffffff" points="270.213,62.6889 296.88,62.6889 310.213,82.6889 296.88,102.689 270.213,102.689 "/>
      <polygon style="fill: none; fill-opacity:0; stroke-width: 2; stroke: #000000" points="270.213,62.6889 296.88,62.6889 310.213,82.6889 296.88,102.689 270.213,102.689 "/>
      <polygon style="fill: none; fill-opacity:0; stroke-width: 2; stroke: #000000" points="270.213,62.6889 296.88,62.6889 310.213,82.6889 296.88,102.689 270.213,102.689 "/>
    </g>
    <text font-size="5.64444" style="fill: #000000;text-anchor:start;font-family:sans-serif;font-style:normal;font-weight:700" x="272.164" y="81.442">
      <tspan x="272.164" y="81.442">Acceptance</tspan>
      <tspan x="272.164" y="88.4976">tests</tspan>
    </text>
  </g>
  <g>
    <g>
      <polygon style="fill: #ffffff" points="317.086,62.6889 343.753,62.6889 357.086,82.6889 343.753,102.689 317.086,102.689 "/>
      <polygon style="fill: none; fill-opacity:0; stroke-width: 2; stroke: #000000" points="317.086,62.6889 343.753,62.6889 357.086,82.6889 343.753,102.689 317.086,102.689 "/>
      <polygon style="fill: none; fill-opacity:0; stroke-width: 2; stroke: #000000" points="317.086,62.6889 343.753,62.6889 357.086,82.6889 343.753,102.689 317.086,102.689 "/>
    </g>
    <text font-size="5.64444" style="fill: #000000;text-anchor:start;font-family:sans-serif;font-style:normal;font-weight:700" x="319.859" y="79.2589">
      <tspan x="319.859" y="79.2589">Coninuous</tspan>
      <tspan x="319.859" y="86.3144">Integration</tspan>
    </text>
  </g>
  <g>
    <g>
      <polygon style="fill: #ffffff" points="375.96,64.1031 402.627,64.1031 415.96,84.1031 402.627,104.103 375.96,104.103 "/>
      <polygon style="fill: none; fill-opacity:0; stroke-width: 2; stroke: #000000" points="375.96,64.1031 402.627,64.1031 415.96,84.1031 402.627,104.103 375.96,104.103 "/>
      <polygon style="fill: none; fill-opacity:0; stroke-width: 2; stroke: #000000" points="375.96,64.1031 402.627,64.1031 415.96,84.1031 402.627,104.103 375.96,104.103 "/>
    </g>
    <text font-size="5.64444" style="fill: #000000;text-anchor:start;font-family:sans-serif;font-style:normal;font-weight:700" x="379.236" y="80.9574">
      <tspan x="379.236" y="80.9574">Local</tspan>
      <tspan x="379.236" y="88.0129">runtime</tspan>
    </text>
  </g>
  <g>
    <g>
      <polygon style="fill: #ffffff" points="424.01,64.1031 450.677,64.1031 464.01,84.1031 450.677,104.103 424.01,104.103 "/>
      <polygon style="fill: none; fill-opacity:0; stroke-width: 2; stroke: #000000" points="424.01,64.1031 450.677,64.1031 464.01,84.1031 450.677,104.103 424.01,104.103 "/>
      <polygon style="fill: none; fill-opacity:0; stroke-width: 2; stroke: #000000" points="424.01,64.1031 450.677,64.1031 464.01,84.1031 450.677,104.103 424.01,104.103 "/>
    </g>
    <text font-size="5.64444" style="fill: #000000;text-anchor:start;font-family:sans-serif;font-style:normal;font-weight:700" x="429.207" y="79.7902">
      <tspan x="429.207" y="79.7902">Amazon</tspan>
      <tspan x="429.207" y="86.8458">runtime</tspan>
    </text>
  </g>
  <g>
    <polygon style="fill: #ffffff" points="167.631,152.352 202.622,152.352 220.117,172.352 202.622,192.352 167.631,192.352 "/>
    <polygon style="fill: none; fill-opacity:0; stroke-width: 2; stroke: #000000" points="167.631,152.352 202.622,152.352 220.117,172.352 202.622,192.352 167.631,192.352 "/>
    <polygon style="fill: none; fill-opacity:0; stroke-width: 2; stroke: #000000" points="167.631,152.352 202.622,152.352 220.117,172.352 202.622,192.352 167.631,192.352 "/>
  </g>
  <text font-size="5.64444" style="fill: #000000;text-anchor:start;font-family:sans-serif;font-style:normal;font-weight:700" x="172.284" y="168.488">
    <tspan x="172.284" y="168.488">Development</tspan>
    <tspan x="172.284" y="175.544">environment</tspan>
  </text>
  <text font-size="5.64444" style="fill: #000000;text-anchor:start;font-family:sans-serif;font-style:normal;font-weight:700" x="282.01" y="165.894">
    <tspan x="282.01" y="165.894">Qa</tspan>
    <tspan x="282.01" y="172.95">environment</tspan>
  </text>
  <g>
    <polygon style="fill: #ffffff" points="386.979,152.352 425.644,152.352 444.977,172.352 425.644,192.352 386.979,192.352 "/>
    <polygon style="fill: none; fill-opacity:0; stroke-width: 2; stroke: #000000" points="386.979,152.352 425.644,152.352 444.977,172.352 425.644,192.352 386.979,192.352 "/>
    <polygon style="fill: none; fill-opacity:0; stroke-width: 2; stroke: #000000" points="386.979,152.352 425.644,152.352 444.977,172.352 425.644,192.352 386.979,192.352 "/>
  </g>
  <text font-size="5.64444" style="fill: #000000;text-anchor:start;font-family:sans-serif;font-style:normal;font-weight:700" x="390.296" y="168.488">
    <tspan x="390.296" y="168.488">Runtime</tspan>
    <tspan x="390.296" y="175.544">environment</tspan>
  </text>
  <g>
    <g>
      <polygon style="fill: #ffffff" points="42.1908,64.8102 83.0268,64.8102 103.445,84.8102 83.0268,104.81 42.1908,104.81 "/>
      <polygon style="fill: none; fill-opacity:0; stroke-width: 2; stroke: #000000" points="42.1908,64.8102 83.0268,64.8102 103.445,84.8102 83.0268,104.81 42.1908,104.81 "/>
      <polygon style="fill: none; fill-opacity:0; stroke-width: 2; stroke: #000000" points="42.1908,64.8102 83.0268,64.8102 103.445,84.8102 83.0268,104.81 42.1908,104.81 "/>
    </g>
    <text font-size="5.64444" style="fill: #000000;text-anchor:start;font-family:sans-serif;font-style:normal;font-weight:700" x="46.9864" y="81.1266">
      <tspan x="46.9864" y="81.1266">Requirements</tspan>
      <tspan x="46.9864" y="88.1822">Acceptance</tspan>
      <tspan x="46.9864" y="95.2377">Criteria</tspan>
      <tspan x="46.9864" y="102.293"></tspan>
    </text>
  </g>
  <g>
    <path style="fill: none; fill-opacity:0; stroke-width: 0.02; stroke-linecap: round; stroke: #000000" d="M 7.33898 123.519 L 9.2394,123.478 C 8.74556,123.81 8.372,124.358 8.24325,124.939 C 7.97548,125.625 7.79898,126.374 7.67024,126.955 C 7.74882,128.212 8.18222,129.244 8.86466,129.91 C 9.48484,130.667 10.5989,131.093 12.2835,131.172 C 13.7856,131.127 14.9703,130.664 15.8522,129.861 C 16.8254,129.121 17.1741,128.021 17.1723,126.75 C 17.2243,126.183 17.0937,125.492 16.8242,124.907 C 16.4923,124.413 16.1605,123.92 15.6128,123.546 L 17.1481,123.256 C 17.648,123.797 18.0089,124.445 18.1104,124.982 C 18.38,125.567 18.5251,126.335 18.5166,127.132 C 18.3317,128.677 17.8584,129.959 17.0055,130.916 C 16.0136,131.978 14.4595,132.589 12.5736,132.707 C 10.5052,132.701 8.88703,132.132 7.81049,131.063 C 6.59492,130.1 6.02672,128.776 6.13491,127.245 C 6.22014,126.434 6.38213,125.608 6.6499,124.922 C 7.00895,124.297 7.22897,123.779 7.33898,123.519 L 7.33898,123.519"/>
    <path style="fill: none; fill-opacity:0; stroke-width: 0.02; stroke-linecap: round; stroke: #000000" d="M 10.5021 117.118 C 10.5081,117.991 10.73,118.744 11.2154,119.209 C 11.763,119.583 12.6655,119.73 13.846,119.666 C 14.7339,119.737 15.5783,119.577 16.3025,119.202 C 16.8441,118.702 17.1886,118.001 17.1826,117.127 C 17.2345,116.561 16.9504,115.899 16.2203,115.401 C 15.5813,114.965 14.7266,114.65 13.8387,114.579 C 12.6582,114.643 11.8283,114.879 11.4402,115.35 C 10.9899,115.912 10.6308,116.537 10.5021,117.118 L 10.5021,117.118"/>
    <path style="fill: none; fill-opacity:0; stroke-width: 0.02; stroke-linecap: round; stroke: #000000" d="M 9.27383 117.35 C 9.31553,116.308 9.77008,115.348 10.652,114.545 C 11.3949,113.848 12.5028,113.4 13.9136,113.293 C 15.2289,113.521 16.343,113.947 17.0254,114.613 C 17.9526,115.312 18.4338,116.175 18.4689,117.202 C 18.5142,118.704 18.1799,119.881 17.5138,120.563 C 16.6029,121.212 15.4514,121.43 14.1361,121.201 C 12.7253,121.309 11.5635,121.051 10.8333,120.553 C 9.92061,119.931 9.39593,118.837 9.27383,117.35 L 9.27383,117.35"/>
    <path style="fill: none; fill-opacity:0; stroke-width: 0.02; stroke-linecap: round; stroke: #000000" d="M 12.6666 103.749 L 18.0608,103.683 L 18.0439,105.277 L 12.6497,105.342 C 12.0833,105.29 11.5459,105.392 11.1144,105.632 C 10.774,105.935 10.554,106.454 10.4253,107.035 C 10.5849,107.879 10.9602,108.603 11.4456,109.068 C 11.763,109.485 12.3583,109.691 13.155,109.699 L 18.2422,109.692 L 18.1672,110.978 L 9.27924,111.068 L 9.35419,109.781 L 10.6405,109.856 C 10.1551,109.391 9.82324,108.898 9.7362,108.437 C 9.51013,108.082 9.25505,107.574 9.13899,106.96 C 9.18069,105.918 9.58749,105.126 10.2681,104.52 C 10.8097,104.02 11.6396,103.784 12.6666,103.749 L 12.6666,103.749"/>
    <path style="fill: none; fill-opacity:0; stroke-width: 0.02; stroke-linecap: round; stroke: #000000" d="M 7.08863 99.4759 L 9.35415,99.6838 L 9.38798,96.4971 L 10.6162,96.265 L 10.5824,99.4517 L 15.3625,99.5025 C 16.0201,99.6167 16.4807,99.5297 16.5907,99.2703 C 16.792,99.0733 16.9353,98.5692 16.9727,97.926 L 16.9897,96.3327 L 18.2759,96.4076 L 18.259,98.001 C 18.2318,99.1192 18.0553,99.8681 17.744,100.325 C 17.2502,100.656 16.4058,100.816 15.2875,100.789 L 10.5075,100.738 L 10.3745,101.717 L 9.14622,101.949 L 9.2792,100.97 L 7.01369,100.762 L 7.08863,99.4759"/>
    <path style="fill: none; fill-opacity:0; stroke-width: 0.02; stroke-linecap: round; stroke: #000000" d="M 9.28461 94.688 L 9.35956,93.4017 L 18.2475,93.3122 L 18.1726,94.5985 L 9.28461,94.688"/>
    <path style="fill: none; fill-opacity:0; stroke-width: 0.02; stroke-linecap: round; stroke: #000000" d="M 5.79084 94.7122 L 5.86579,93.4259 L 8.07327,93.3267 L 7.99832,94.613 L 5.79084,94.7122"/>
    <path style="fill: none; fill-opacity:0; stroke-width: 0.02; stroke-linecap: round; stroke: #000000" d="M 12.6272 82.9252 L 18.0214,82.8599 L 18.0045,84.4532 L 12.6103,84.5185 C 12.0439,84.4666 11.5066,84.5681 11.075,84.8087 C 10.7347,85.1115 10.5146,85.6301 10.3859,86.211 C 10.5455,87.0555 10.9209,87.7796 11.4062,88.2444 C 11.7236,88.6615 12.319,88.867 13.1156,88.8755 L 18.2028,88.8682 L 18.1278,90.1545 L 9.23986,90.244 L 9.31481,88.9577 L 10.6011,89.0326 C 10.1157,88.5678 9.78387,88.074 9.69682,87.6134 C 9.47075,87.2586 9.21567,86.7502 9.09961,86.1361 C 9.14132,85.0946 9.54811,84.3022 10.2287,83.6965 C 10.7703,83.1966 11.6002,82.9602 12.6272,82.9252 L 12.6272,82.9252"/>
    <path style="fill: none; fill-opacity:0; stroke-width: 0.02; stroke-linecap: round; stroke: #000000" d="M 14.7543 80.297 L 9.36011,80.3623 L 9.37703,78.7689 L 14.7712,78.7036 C 15.6592,78.7744 16.2733,78.6583 16.6136,78.3555 C 17.0017,77.8846 17.2072,77.2892 17.2447,76.646 C 17.2531,75.8494 17.0603,75.2497 16.5894,74.8617 C 15.9795,74.5794 15.1538,74.4174 14.2659,74.3467 L 9.17875,74.354 L 9.19567,72.7606 L 18.0836,72.6711 L 18.0667,74.2645 L 16.7804,74.1895 C 17.2803,74.7311 17.6889,75.2105 17.9918,75.5508 C 18.2323,75.9823 18.4874,76.4907 18.589,77.0281 C 18.5618,78.1463 18.155,78.9388 17.4599,79.4677 C 16.7792,80.0733 15.8726,80.3242 14.7543,80.297 L 14.7543,80.297"/>
    <path style="fill: none; fill-opacity:0; stroke-width: 0.02; stroke-linecap: round; stroke: #000000" d="M 9.27789 76.5615 L 9.27789,76.5615"/>
    <path style="fill: none; fill-opacity:0; stroke-width: 0.02; stroke-linecap: round; stroke: #000000" d="M 10.5061 66.2319 C 10.5122,67.1053 10.734,67.8585 11.2194,68.3233 C 11.767,68.6968 12.6695,68.8443 13.85,68.7802 C 14.7379,68.851 15.5824,68.6914 16.3065,68.316 C 16.8481,67.8161 17.1926,67.1149 17.1866,66.2415 C 17.2386,65.6751 16.9545,65.0132 16.2243,64.5152 C 15.5854,64.0794 14.7307,63.7638 13.8427,63.6931 C 12.6622,63.7572 11.8323,63.9935 11.4442,64.4644 C 10.9939,65.0266 10.6349,65.651 10.5061,66.2319 L 10.5061,66.2319"/>
    <path style="fill: none; fill-opacity:0; stroke-width: 0.02; stroke-linecap: round; stroke: #000000" d="M 9.27785 66.464 C 9.31955,65.4225 9.7741,64.462 10.656,63.6593 C 11.3989,62.9623 12.5068,62.5144 13.9177,62.4068 C 15.233,62.6353 16.347,63.0608 17.0294,63.7269 C 17.9567,64.4263 18.4378,65.2895 18.4729,66.3164 C 18.5182,67.8185 18.184,68.9948 17.5178,69.6772 C 16.6069,70.3264 15.4554,70.544 14.1401,70.3156 C 12.7293,70.4232 11.5676,70.1657 10.8374,69.6676 C 9.92463,69.045 9.39995,67.9515 9.27785,66.464 L 9.27785,66.464"/>
    <path style="fill: none; fill-opacity:0; stroke-width: 0.02; stroke-linecap: round; stroke: #000000" d="M 14.7355 60.4236 L 9.34129,60.4889 L 9.35821,58.8955 L 14.7524,58.8302 C 15.6403,58.901 16.2545,58.7849 16.5948,58.4821 C 16.9828,58.0112 17.1884,57.4158 17.2258,56.7726 C 17.2343,55.976 17.0415,55.3763 16.5706,54.9883 C 15.9607,54.706 15.135,54.544 14.2471,54.4733 L 9.15993,54.4806 L 9.17685,52.8872 L 18.0648,52.7977 L 18.0479,54.3911 L 16.7616,54.3161 C 17.2615,54.8577 17.6701,55.3371 17.9729,55.6774 C 18.2135,56.1089 18.4686,56.6173 18.5702,57.1547 C 18.543,58.2729 18.1362,59.0654 17.441,59.5943 C 16.7604,60.1999 15.8537,60.4508 14.7355,60.4236 L 14.7355,60.4236"/>
    <path style="fill: none; fill-opacity:0; stroke-width: 0.02; stroke-linecap: round; stroke: #000000" d="M 9.25907 56.6881 L 9.25907,56.6881"/>
    <path style="fill: none; fill-opacity:0; stroke-width: 0.02; stroke-linecap: round; stroke: #000000" d="M 9.51047 44.5554 L 10.7968,44.6303 C 10.7303,45.1199 10.6348,45.456 10.6638,45.6095 C 10.5538,45.8688 10.4873,46.3585 10.5888,46.8958 C 10.5514,47.539 10.6819,48.2299 10.937,48.7382 C 11.0241,49.1988 11.2834,49.3088 11.6672,49.2363 C 11.8975,49.1928 12.2046,49.1347 12.5884,49.0622 C 12.7897,48.8651 12.9952,48.2697 13.2194,47.3528 L 13.1034,46.7386 C 13.3754,45.6536 13.6432,44.967 13.9835,44.6641 C 14.3715,44.1933 14.8944,44.0149 15.4608,44.0669 C 16.3052,43.9073 16.9296,44.2664 17.5353,44.947 C 18.0352,45.4886 18.2715,46.3185 18.3066,47.3455 C 18.4226,47.9596 18.3706,48.526 18.2897,48.9389 C 18.1464,49.443 17.9554,50.1151 17.7166,50.9553 L 16.1233,50.9384 C 16.4388,50.0837 16.7066,49.397 17.0034,48.8639 C 17.1611,48.4366 17.1363,47.8847 17.0203,47.2706 C 17.149,46.6897 17.062,46.2291 16.7882,46.0423 C 16.5621,45.6875 16.2883,45.5007 16.058,45.5442 C 15.6451,45.4632 15.3381,45.5213 15.1368,45.7183 C 14.7965,46.0211 14.5142,46.631 14.1987,47.4858 L 14.0077,48.1579 C 14.0137,49.0314 13.8227,49.7035 13.4346,50.1744 C 13.0943,50.4772 12.557,50.5788 11.8993,50.4645 C 11.1317,50.6096 10.5363,50.4041 10.1899,49.8335 C 9.661,49.1384 9.42466,48.3084 9.41861,47.435 C 9.31706,46.8976 9.36904,46.3313 9.43553,45.8416 C 9.36299,45.4578 9.44398,45.045 9.51047,44.5554 L 9.51047,44.5554"/>
  </g>
  <g>
    <path style="fill: none; fill-opacity:0; stroke-width: 0.02; stroke-linecap: round; stroke: #000000" d="M 25.1944 118.823 L 34.0824,118.734 L 34.0413,116.833 C 33.9669,115.178 33.6581,113.964 33.0379,113.206 C 32.3554,112.54 31.1792,112.206 29.6771,112.251 C 27.9925,112.172 26.7932,112.558 26.0503,113.255 C 25.3987,114.014 25.079,115.267 25.1533,116.923 L 25.1944,118.823"/>
    <path style="fill: none; fill-opacity:0; stroke-width: 0.02; stroke-linecap: round; stroke: #000000" d="M 23.5842 120.4 L 23.618,117.213 C 23.6579,114.9 24.2122,113.205 25.2041,112.143 C 26.1337,111.172 27.6255,110.651 29.694,110.658 C 31.5799,110.54 33.03,111.061 33.785,112.111 C 34.7848,113.194 35.3487,114.916 35.3856,117.215 L 35.3518,120.402 L 23.5842,120.4"/>
    <path style="fill: none; fill-opacity:0; stroke-width: 0.02; stroke-linecap: round; stroke: #000000" d="M 30.4429 100.737 L 31.115,100.928 L 31.0474,107.301 C 32.1656,107.329 32.9955,107.092 33.4459,106.53 C 33.9584,105.877 34.274,105.022 34.2679,104.149 C 34.3199,103.582 34.2183,103.045 33.9778,102.613 C 33.8762,102.076 33.6689,101.4 33.3225,100.829 L 34.6088,100.904 C 35.1087,101.445 35.4696,102.093 35.5711,102.63 C 35.6582,103.091 35.6062,103.657 35.5542,104.224 C 35.5995,105.726 35.2653,106.902 34.5992,107.584 C 33.7173,108.387 32.5948,108.758 31.2795,108.53 C 29.8687,108.637 28.6924,108.303 27.9187,107.575 C 27.006,106.952 26.4813,105.859 26.3592,104.371 C 26.4009,103.33 26.8077,102.537 27.4883,101.931 C 28.2312,101.235 29.2624,100.801 30.4429,100.737 L 30.4429,100.737"/>
    <path style="fill: none; fill-opacity:0; stroke-width: 0.02; stroke-linecap: round; stroke: #000000" d="M 29.7538 102.139 C 29.1874,102.087 28.6646,102.266 28.2765,102.737 C 27.9362,103.039 27.7162,103.558 27.5874,104.139 C 27.5935,105.012 27.8153,105.766 28.3007,106.23 C 28.6471,106.801 29.1947,107.175 29.7611,107.227 L 29.7538,102.139"/>
    <path style="fill: none; fill-opacity:0; stroke-width: 0.02; stroke-linecap: round; stroke: #000000" d="M 22.9911 98.3289 L 23.0661,97.0426 L 35.4478,96.9289 L 35.3728,98.2152 L 22.9911,98.3289"/>
    <path style="fill: none; fill-opacity:0; stroke-width: 0.02; stroke-linecap: round; stroke: #000000" d="M 26.4401 93.8607 L 26.5151,92.5744 L 35.403,92.485 L 35.3281,93.7712 L 26.4401,93.8607"/>
    <path style="fill: none; fill-opacity:0; stroke-width: 0.02; stroke-linecap: round; stroke: #000000" d="M 22.9464 93.8849 L 23.0213,92.5986 L 25.2288,92.4995 L 25.1538,93.7858 L 22.9464,93.8849"/>
    <path style="fill: none; fill-opacity:0; stroke-width: 0.02; stroke-linecap: round; stroke: #000000" d="M 26.3392 90.3815 L 26.4141,89.0952 L 33.8006,86.1091 L 26.2908,83.3939 L 26.3657,82.1076 L 35.2199,85.2048 L 35.261,87.1053 L 26.3392,90.3815"/>
    <path style="fill: none; fill-opacity:0; stroke-width: 0.02; stroke-linecap: round; stroke: #000000" d="M 30.4361 72.513 L 31.1083,72.7041 L 31.0406,79.0775 C 32.1589,79.1047 32.9888,78.8683 33.4391,78.3062 C 33.9517,77.6527 34.2672,76.798 34.2611,75.9246 C 34.3131,75.3582 34.2116,74.8209 33.971,74.3893 C 33.8695,73.8519 33.6621,73.1755 33.3158,72.6049 L 34.6021,72.6799 C 35.1019,73.2215 35.4628,73.8688 35.5644,74.4062 C 35.6514,74.8668 35.5994,75.4332 35.5474,75.9995 C 35.5928,77.5016 35.2585,78.6779 34.5924,79.3603 C 33.7105,80.1631 32.588,80.5342 31.2727,80.3057 C 29.8619,80.4133 28.6856,80.0791 27.9119,79.3507 C 26.9992,78.7281 26.4745,77.6346 26.3524,76.1471 C 26.3941,75.1056 26.8009,74.3131 27.4815,73.7075 C 28.2244,73.0105 29.2556,72.5771 30.4361,72.513 L 30.4361,72.513"/>
    <path style="fill: none; fill-opacity:0; stroke-width: 0.02; stroke-linecap: round; stroke: #000000" d="M 29.747 73.9154 C 29.1807,73.8634 28.6578,74.0417 28.2697,74.5126 C 27.9294,74.8154 27.7094,75.3341 27.5807,75.915 C 27.5867,76.7884 27.8086,77.5415 28.2939,78.0064 C 28.6403,78.577 29.1879,78.9505 29.7543,79.0025 L 29.747,73.9154"/>
    <path style="fill: none; fill-opacity:0; stroke-width: 0.02; stroke-linecap: round; stroke: #000000" d="M 27.8297 65.4524 C 27.8297,65.4524 27.8587,65.6059 27.8877,65.7594 C 27.7342,65.7884 27.6096,65.971 27.6387,66.1245 C 27.7982,66.969 28.1736,67.6931 28.659,68.1579 C 29.2066,68.5315 29.9556,68.708 30.9825,68.6729 L 35.4555,68.7817 L 35.3806,70.068 L 26.4926,70.1575 L 26.5676,68.8712 L 27.8539,68.9461 C 27.3975,68.6348 27.0947,68.2945 27.0076,67.8339 C 26.7525,67.3256 26.4684,66.6637 26.3524,66.0496 C 26.5537,65.8525 26.6014,65.6845 26.6014,65.6845 C 26.5724,65.531 26.5434,65.3774 26.5434,65.3774 L 27.8297,65.4524"/>
    <path style="fill: none; fill-opacity:0; stroke-width: 0.02; stroke-linecap: round; stroke: #000000" d="M 35.8599 59.5619 C 37.1709,60.1887 37.9779,60.6723 38.0504,61.0561 C 38.291,61.4877 38.3926,62.025 38.3406,62.5914 L 38.5727,63.8197 L 37.5935,63.6867 L 37.4774,63.0726 C 37.5294,62.5062 37.4569,62.1224 37.3033,62.1514 C 37.044,62.0414 36.4964,61.6678 35.843,61.1552 L 34.8637,61.0223 L 26.307,64.5475 L 26.382,63.2612 L 33.4614,60.3332 L 26.2586,57.56 L 26.3336,56.2737 L 35.8599,59.5619"/>
  </g>
  <g>
    <path style="fill: none; fill-opacity:0; stroke-width: 0.02; stroke-linecap: round; stroke: #000000" d="M 8.73495 192.438 L 8.75187,190.844 L 20.5195,190.847 L 20.5026,192.44 L 8.73495,192.438"/>
    <path style="fill: none; fill-opacity:0; stroke-width: 0.02; stroke-linecap: round; stroke: #000000" d="M 14.9904 180.522 L 20.3846,180.457 L 20.3677,182.05 L 14.9735,182.115 C 14.4071,182.063 13.8698,182.165 13.4382,182.406 C 13.0979,182.708 12.8779,183.227 12.7491,183.808 C 12.9087,184.652 13.2841,185.376 13.7695,185.841 C 14.0868,186.258 14.6822,186.464 15.4789,186.472 L 20.566,186.465 L 20.4911,187.751 L 11.6031,187.841 L 11.678,186.555 L 12.9643,186.63 C 12.4789,186.165 12.1471,185.671 12.06,185.21 C 11.834,184.855 11.5789,184.347 11.4628,183.733 C 11.5045,182.691 11.9113,181.899 12.592,181.293 C 13.1335,180.793 13.9635,180.557 14.9904,180.522 L 14.9904,180.522"/>
    <path style="fill: none; fill-opacity:0; stroke-width: 0.02; stroke-linecap: round; stroke: #000000" d="M 8.20355 173.218 L 9.43181,172.986 L 9.41489,174.579 C 9.3484,175.069 9.49771,175.438 9.95407,175.749 C 10.2279,175.936 10.5495,175.955 10.9333,175.882 L 11.6055,176.073 L 11.5063,173.866 L 12.7346,173.634 L 12.8337,175.841 L 20.4934,175.984 L 20.4185,177.27 L 12.7588,177.127 L 12.7418,178.721 L 11.5136,178.953 L 11.5305,177.36 L 11.2234,177.418 C 10.1965,177.453 9.44754,177.276 8.8999,176.903 C 8.44353,176.591 8.2362,175.915 8.18663,174.811 L 8.20355,173.218"/>
    <path style="fill: none; fill-opacity:0; stroke-width: 0.02; stroke-linecap: round; stroke: #000000" d="M 12.9703 167.308 C 12.9703,167.308 12.9993,167.462 13.0283,167.615 C 12.8748,167.644 12.7503,167.827 12.7793,167.98 C 12.9389,168.825 13.3142,169.549 13.7996,170.014 C 14.3473,170.387 15.0962,170.564 16.1232,170.529 L 20.5962,170.637 L 20.5212,171.924 L 11.6332,172.013 L 11.7082,170.727 L 12.9945,170.802 C 12.5381,170.49 12.2353,170.15 12.1482,169.69 C 11.8932,169.181 11.6091,168.519 11.493,167.905 C 11.6943,167.708 11.742,167.54 11.742,167.54 C 11.713,167.387 11.684,167.233 11.684,167.233 L 12.9703,167.308"/>
    <path style="fill: none; fill-opacity:0; stroke-width: 0.02; stroke-linecap: round; stroke: #000000" d="M 15.9279 161.502 C 15.9775,162.605 16.137,163.45 16.3921,163.958 C 16.7095,164.375 17.0455,164.471 17.4294,164.398 C 18.087,164.512 18.6244,164.411 18.9647,164.108 C 19.3528,163.637 19.5873,163.195 19.6538,162.706 C 19.5087,161.938 19.2101,161.199 18.6334,160.672 C 17.9945,160.236 17.1543,159.998 16.3099,160.157 L 15.9448,159.908 L 15.9279,161.502"/>
    <path style="fill: none; fill-opacity:0; stroke-width: 0.02; stroke-linecap: round; stroke: #000000" d="M 15.4056 158.738 L 20.4927,158.731 L 20.4178,160.017 L 19.1315,159.942 C 19.6314,160.484 20.04,160.963 20.3428,161.303 C 20.5834,161.735 20.685,162.272 20.633,162.839 C 20.6058,163.957 20.4293,164.706 20.118,165.162 C 19.6677,165.724 18.929,166.023 18.0846,166.182 C 17.0576,166.218 16.3565,165.873 16.0101,165.302 C 15.4812,164.607 15.1868,163.47 15.0647,161.983 L 15.0236,160.082 L 14.7165,160.14 C 14.1502,160.088 13.6273,160.267 13.2392,160.738 C 12.9425,161.271 12.8137,161.852 12.9153,162.389 C 12.8488,162.878 12.7968,163.445 12.8983,163.982 C 12.8609,164.625 13.0392,165.148 13.4956,165.46 L 12.2093,165.385 C 11.7239,164.92 11.5456,164.397 11.6121,163.907 C 11.5105,163.37 11.577,162.88 11.687,162.621 C 11.6997,161.426 12.0775,160.48 12.7581,159.874 C 13.2707,159.221 14.2251,158.802 15.4056,158.738 L 15.4056,158.738"/>
    <path style="fill: none; fill-opacity:0; stroke-width: 0.02; stroke-linecap: round; stroke: #000000" d="M 15.3065 156.53 L 15.4153,152.057 L 16.7016,152.132 L 16.5928,156.605 L 15.3065,156.53"/>
  </g>
  <g>
    <path style="fill: none; fill-opacity:0; stroke-width: 0.02; stroke-linecap: round; stroke: #000000" d="M 29.9297 201.812 L 31.216,201.887 C 31.1495,202.376 31.054,202.713 31.083,202.866 C 30.973,203.125 30.9065,203.615 31.0081,204.152 C 30.9706,204.795 31.1011,205.486 31.3562,205.995 C 31.4433,206.455 31.7026,206.565 32.0864,206.493 C 32.3167,206.449 32.6238,206.391 33.0076,206.319 C 33.2089,206.122 33.4144,205.526 33.6387,204.609 L 33.5226,203.995 C 33.7946,202.91 34.0624,202.224 34.4027,201.921 C 34.7907,201.45 35.3136,201.271 35.88,201.323 C 36.7244,201.164 37.3488,201.523 37.9545,202.204 C 38.4544,202.745 38.6907,203.575 38.7258,204.602 C 38.8418,205.216 38.7899,205.783 38.7089,206.195 C 38.5656,206.7 38.3746,207.372 38.1359,208.212 L 36.5425,208.195 C 36.858,207.34 37.1258,206.654 37.4226,206.12 C 37.5803,205.693 37.5556,205.141 37.4395,204.527 C 37.5682,203.946 37.4812,203.486 37.2074,203.299 C 36.9813,202.944 36.7075,202.757 36.4772,202.801 C 36.0643,202.72 35.7573,202.778 35.556,202.975 C 35.2157,203.278 34.9334,203.888 34.6179,204.742 L 34.4269,205.414 C 34.4329,206.288 34.2419,206.96 33.8539,207.431 C 33.5136,207.734 32.9762,207.835 32.3185,207.721 C 31.5509,207.866 30.9555,207.661 30.6091,207.09 C 30.0802,206.395 29.8439,205.565 29.8378,204.692 C 29.7363,204.154 29.7883,203.588 29.8547,203.098 C 29.7822,202.714 29.8632,202.302 29.9297,201.812 L 29.9297,201.812"/>
    <path style="fill: none; fill-opacity:0; stroke-width: 0.02; stroke-linecap: round; stroke: #000000" d="M 27.5094 197.419 L 29.7749,197.627 L 29.8088,194.441 L 31.037,194.208 L 31.0032,197.395 L 35.7833,197.446 C 36.4409,197.56 36.9015,197.473 37.0115,197.214 C 37.2128,197.017 37.3561,196.513 37.3935,195.869 L 37.4104,194.276 L 38.6967,194.351 L 38.6798,195.944 C 38.6526,197.063 38.4761,197.812 38.1648,198.268 C 37.671,198.6 36.8266,198.759 35.7083,198.732 L 30.9282,198.681 L 30.7953,199.661 L 29.567,199.893 L 29.7,198.914 L 27.4345,198.706 L 27.5094,197.419"/>
    <path style="fill: none; fill-opacity:0; stroke-width: 0.02; stroke-linecap: round; stroke: #000000" d="M 31.0424 187.926 C 31.0424,187.926 31.0715,188.08 31.1005,188.233 C 30.9469,188.262 30.8224,188.445 30.8514,188.598 C 31.011,189.443 31.3864,190.167 31.8718,190.632 C 32.4194,191.005 33.1683,191.182 34.1953,191.147 L 38.6683,191.256 L 38.5934,192.542 L 29.7054,192.631 L 29.7803,191.345 L 31.0666,191.42 C 30.6103,191.109 30.3074,190.768 30.2204,190.308 C 29.9653,189.799 29.6812,189.138 29.5651,188.523 C 29.7664,188.326 29.8142,188.158 29.8142,188.158 C 29.7852,188.005 29.7562,187.851 29.7562,187.851 L 31.0424,187.926"/>
    <path style="fill: none; fill-opacity:0; stroke-width: 0.02; stroke-linecap: round; stroke: #000000" d="M 35.1195 186.361 L 29.7253,186.426 L 29.7422,184.833 L 35.1364,184.767 C 36.0244,184.838 36.6385,184.722 36.9788,184.419 C 37.3669,183.948 37.5724,183.353 37.6099,182.71 C 37.6183,181.913 37.4255,181.313 36.9546,180.925 C 36.3447,180.643 35.519,180.481 34.6311,180.41 L 29.544,180.418 L 29.5609,178.824 L 38.4488,178.735 L 38.4319,180.328 L 37.1456,180.253 C 37.6455,180.795 38.0541,181.274 38.357,181.614 C 38.5976,182.046 38.8526,182.554 38.9542,183.092 C 38.927,184.21 38.5202,185.002 37.8251,185.531 C 37.1444,186.137 36.2378,186.388 35.1195,186.361 L 35.1195,186.361"/>
    <path style="fill: none; fill-opacity:0; stroke-width: 0.02; stroke-linecap: round; stroke: #000000" d="M 29.6431 182.625 L 29.6431,182.625"/>
    <path style="fill: none; fill-opacity:0; stroke-width: 0.02; stroke-linecap: round; stroke: #000000" d="M 30.0855 169.82 L 31.6789,169.837 C 31.185,170.169 30.8592,170.549 30.9318,170.932 C 30.9753,171.163 30.9565,171.484 30.7988,171.912 C 30.8048,172.785 31.0267,173.538 31.5121,174.003 C 32.0887,174.53 33.0202,174.831 34.2007,174.767 C 35.0886,174.838 35.9186,174.602 36.5992,173.996 C 37.1408,173.496 37.4853,172.795 37.4793,171.921 C 37.5603,171.509 37.4877,171.125 37.2471,170.693 C 37.1746,170.309 37.0398,170.017 36.766,169.83 L 38.3593,169.847 C 38.4029,170.077 38.4609,170.384 38.5334,170.768 C 38.774,171.2 38.8465,171.583 38.7655,171.996 C 38.8109,173.498 38.4766,174.675 37.8105,175.357 C 36.9286,176.16 35.8061,176.531 34.4908,176.302 C 33.08,176.41 31.9037,176.076 31.13,175.347 C 30.2173,174.725 29.6926,173.631 29.5705,172.144 C 29.7283,171.716 29.7325,171.318 29.6455,170.858 C 29.5729,170.474 29.7452,170.123 30.0855,169.82 L 30.0855,169.82"/>
    <path style="fill: none; fill-opacity:0; stroke-width: 0.02; stroke-linecap: round; stroke: #000000" d="M 27.464 165.625 L 29.7295,165.833 L 29.7633,162.646 L 30.9916,162.414 L 30.9577,165.601 L 35.7378,165.651 C 36.3954,165.766 36.856,165.679 36.966,165.419 C 37.1673,165.222 37.3106,164.718 37.3481,164.075 L 37.365,162.482 L 38.6513,162.556 L 38.6343,164.15 C 38.6072,165.268 38.4307,166.017 38.1194,166.473 C 37.6255,166.805 36.7811,166.965 35.6628,166.938 L 30.8828,166.887 L 30.7498,167.866 L 29.5215,168.098 L 29.6545,167.119 L 27.389,166.911 L 27.464,165.625"/>
    <path style="fill: none; fill-opacity:0; stroke-width: 0.02; stroke-linecap: round; stroke: #000000" d="M 35.1122 161.079 L 29.718,161.144 L 29.7349,159.551 L 35.1291,159.485 C 36.017,159.556 36.6312,159.44 36.9715,159.137 C 37.3595,158.666 37.565,158.071 37.6025,157.428 C 37.611,156.631 37.4181,156.031 36.9473,155.643 C 36.3374,155.361 35.5117,155.199 34.6237,155.128 L 29.5366,155.136 L 29.5535,153.542 L 38.4415,153.453 L 38.4246,155.046 L 37.1383,154.971 C 37.6382,155.513 38.0468,155.992 38.3496,156.332 C 38.5902,156.764 38.8453,157.272 38.9468,157.81 C 38.9196,158.928 38.5128,159.72 37.8177,160.249 C 37.1371,160.855 36.2304,161.106 35.1122,161.079 L 35.1122,161.079"/>
    <path style="fill: none; fill-opacity:0; stroke-width: 0.02; stroke-linecap: round; stroke: #000000" d="M 29.6357 157.343 L 29.6357,157.343"/>
    <path style="fill: none; fill-opacity:0; stroke-width: 0.02; stroke-linecap: round; stroke: #000000" d="M 30.9969 146.034 C 30.9969,146.034 31.026,146.188 31.055,146.341 C 30.9014,146.37 30.7769,146.553 30.8059,146.706 C 30.9655,147.551 31.3409,148.275 31.8263,148.74 C 32.3739,149.113 33.1228,149.29 34.1498,149.255 L 38.6228,149.364 L 38.5479,150.65 L 29.6599,150.739 L 29.7348,149.453 L 31.0211,149.528 C 30.5648,149.217 30.2619,148.876 30.1749,148.416 C 29.9198,147.907 29.6357,147.246 29.5196,146.631 C 29.7209,146.434 29.7687,146.266 29.7687,146.266 C 29.7397,146.113 29.7106,145.959 29.7106,145.959 L 30.9969,146.034"/>
    <path style="fill: none; fill-opacity:0; stroke-width: 0.02; stroke-linecap: round; stroke: #000000" d="M 33.6855 136.701 L 34.3577,136.892 L 34.29,143.265 C 35.4083,143.292 36.2382,143.056 36.6885,142.494 C 37.2011,141.84 37.5166,140.986 37.5106,140.112 C 37.5625,139.546 37.461,139.009 37.2204,138.577 C 37.1189,138.04 36.9115,137.363 36.5652,136.793 L 37.8515,136.868 C 38.3514,137.409 38.7122,138.057 38.8138,138.594 C 38.9008,139.055 38.8488,139.621 38.7969,140.187 C 38.8422,141.689 38.5079,142.866 37.8418,143.548 C 36.9599,144.351 35.8374,144.722 34.5221,144.493 C 33.1113,144.601 31.935,144.267 31.1613,143.538 C 30.2486,142.916 29.7239,141.822 29.6018,140.335 C 29.6435,139.293 30.0503,138.501 30.7309,137.895 C 31.4738,137.198 32.505,136.765 33.6855,136.701 L 33.6855,136.701"/>
    <path style="fill: none; fill-opacity:0; stroke-width: 0.02; stroke-linecap: round; stroke: #000000" d="M 32.9965 138.103 C 32.4301,138.051 31.9072,138.229 31.5192,138.7 C 31.1788,139.003 30.9588,139.522 30.8301,140.103 C 30.8361,140.976 31.058,141.729 31.5434,142.194 C 31.8897,142.765 32.4374,143.138 33.0037,143.19 L 32.9965,138.103"/>
  </g>
  <g>
    <polygon style="fill: #ffffff" points="44.5529,150.372 85.3888,150.372 105.807,170.372 85.3888,190.372 44.5529,190.372 "/>
    <polygon style="fill: none; fill-opacity:0; stroke-width: 2; stroke: #000000" points="44.5529,150.372 85.3888,150.372 105.807,170.372 85.3888,190.372 44.5529,190.372 "/>
    <polygon style="fill: none; fill-opacity:0; stroke-width: 2; stroke: #000000" points="44.5529,150.372 85.3888,150.372 105.807,170.372 85.3888,190.372 44.5529,190.372 "/>
  </g>
  <text font-size="5.64444" style="fill: #000000;text-anchor:start;font-family:sans-serif;font-style:normal;font-weight:700" x="49.3484" y="166.688">
    <tspan x="49.3484" y="166.688"></tspan>
    <tspan x="49.3484" y="173.744">Architecture</tspan>
  </text>
  <text font-size="12.7998" style="fill: #000000;text-anchor:middle;font-family:sans-serif;font-style:normal;font-weight:normal" x="183.133" y="36.4645">
    <tspan x="183.133" y="36.4645">Development</tspan>
    <tspan x="183.133" y="52.4645">Environment</tspan>
  </text>
  <text font-size="12.7998" style="fill: #000000;text-anchor:middle;font-family:sans-serif;font-style:normal;font-weight:normal" x="307.577" y="33.636">
    <tspan x="307.577" y="33.636">Quality </tspan>
    <tspan x="307.577" y="49.636">Environment</tspan>
  </text>
  <text font-size="12.7998" style="fill: #000000;text-anchor:middle;font-family:sans-serif;font-style:normal;font-weight:normal" x="418.864" y="37.528">
    <tspan x="418.864" y="37.528">Runtime </tspan>
    <tspan x="418.864" y="53.528">Environment</tspan>
  </text>
</svg>
